<svg width="5251" height="1558" xmlns="http://www.w3.org/2000/svg" xmlns:xlink="http://www.w3.org/1999/xlink" xml:space="preserve" overflow="hidden"><g transform="translate(-127 -12951)"><path d="M1821.21 14177.2 1856.95 14177.2 1855.97 14181.6C1853.7 14182 1852.08 14182.6 1851.1 14183.2 1850.12 14183.8 1849.24 14184.7 1848.46 14185.8 1847.69 14187 1846.88 14188.9 1846.05 14191.4 1845.22 14194 1844.17 14198.1 1842.92 14203.8L1836.58 14232.3 1839.53 14232.3C1842.03 14232.3 1844.31 14231.9 1846.36 14231.1 1848.42 14230.2 1850.82 14228.7 1853.56 14226.5 1856.3 14224.3 1860.66 14220.2 1866.65 14214.4 1872.63 14208.5 1876.89 14204 1879.42 14200.9 1881.96 14197.8 1883.8 14195.2 1884.96 14193 1886.13 14190.7 1886.71 14188.7 1886.71 14186.8 1886.71 14185.3 1886.11 14184.1 1884.92 14183.2 1883.73 14182.3 1882.03 14181.7 1879.83 14181.6L1880.81 14177.2 1919.14 14177.2 1918.16 14181.6C1915.78 14181.9 1913.08 14183.2 1910.07 14185.3 1907.06 14187.4 1902.46 14191.5 1896.27 14197.6L1861.6 14231.4 1880.63 14277.2C1882.6 14281.9 1884.22 14285.3 1885.5 14287.4 1886.78 14289.4 1888.31 14291.1 1890.1 14292.3 1891.89 14293.5 1894.09 14294.4 1896.71 14294.8L1895.73 14299.1 1861.24 14299.1 1862.22 14294.8C1865.44 14294.5 1867.05 14293 1867.05 14290.5 1867.05 14288.9 1866.72 14287 1866.07 14285 1865.41 14282.9 1864.64 14280.8 1863.74 14278.6L1852.13 14250.2C1850.76 14246.8 1849.56 14244.4 1848.55 14243 1847.54 14241.7 1846.47 14240.7 1845.33 14240.2 1844.2 14239.6 1842.45 14239.4 1840.06 14239.4L1835.06 14239.4 1827.64 14273.1C1826.87 14276.7 1826.36 14279.5 1826.12 14281.6 1825.88 14283.6 1825.77 14285.5 1825.77 14287.1 1825.77 14289.8 1826.44 14291.7 1827.78 14292.8 1829.12 14293.9 1831.37 14294.5 1834.52 14294.8L1833.54 14299.1 1797.8 14299.1 1798.78 14294.8C1801.04 14294.4 1802.74 14293.8 1803.87 14293 1805.01 14292.2 1805.96 14291.1 1806.73 14289.7 1807.51 14288.2 1808.22 14286.5 1808.88 14284.5 1809.53 14282.4 1810.52 14278.4 1811.83 14272.5L1827.02 14203.7C1828.33 14197.8 1828.98 14193 1828.98 14189.3 1828.98 14186.5 1828.28 14184.6 1826.88 14183.5 1825.48 14182.4 1823.26 14181.7 1820.23 14181.6Z" fill-rule="evenodd"/><text fill="#000000" fill-opacity="0" font-family="Arial,Arial_MSFontService,sans-serif" font-size="121.97" x="1797.8" y="14283.9">ğ¾</text><path d="M1937.18 14270.4 1940.39 14270.4 1930.7 14314C1930.09 14316.6 1929.67 14318.6 1929.43 14320.2 1929.19 14321.7 1929.07 14323.1 1929.07 14324.3 1929.07 14325.9 1929.41 14327.1 1930.08 14327.9 1930.76 14328.6 1931.77 14329 1933.12 14329 1933.91 14329 1934.69 14328.8 1935.48 14328.5 1936.27 14328.2 1937.1 14327.7 1938 14327.1 1938.89 14326.4 1939.87 14325.6 1940.94 14324.6 1942.01 14323.5 1943.2 14322.3 1944.51 14320.9L1948.96 14325.2C1946.69 14327.5 1944.63 14329.5 1942.78 14331 1940.92 14332.6 1939.17 14333.9 1937.51 14334.9 1935.85 14335.9 1934.23 14336.7 1932.63 14337.1 1931.04 14337.5 1929.35 14337.8 1927.56 14337.8 1925.91 14337.8 1924.41 14337.4 1923.08 14336.8 1921.75 14336.2 1920.61 14335.4 1919.65 14334.3 1918.69 14333.2 1917.94 14332 1917.42 14330.5 1916.9 14329 1916.64 14327.4 1916.64 14325.6 1916.64 14324.1 1916.81 14322.4 1917.16 14320.2 1917.51 14318.1 1917.96 14315.8 1918.5 14313.2 1919.05 14310.7 1919.65 14308.1 1920.3 14305.4 1920.95 14302.6 1921.6 14299.9 1922.23 14297.2 1922.86 14294.5 1923.43 14291.9 1923.93 14289.4 1924.43 14286.9 1924.79 14284.6 1925.01 14282.5 1925.1 14282.2 1925.14 14281.8 1925.14 14281.5 1925.14 14281.2 1925.14 14280.9 1925.14 14280.6 1925.05 14278.9 1924.46 14277.7 1923.34 14276.9 1922.23 14276.1 1920.26 14275.7 1917.42 14275.6L1918.21 14271.1ZM1933.39 14244.1 1946.47 14244.1 1943.27 14258.1 1930.31 14258.1Z" fill-rule="evenodd"/><text fill="#000000" fill-opacity="0" font-family="Arial,Arial_MSFontService,sans-serif" font-size="93.6953" x="1916.64" y="14326">ğ‘–</text><path d="M2029.18 14259.5 2139.27 14259.5 2139.27 14271.4 2029.18 14271.4ZM2029.18 14222.4 2139.27 14222.4 2139.27 14234.3 2029.18 14234.3Z" fill-rule="evenodd"/><text fill="#000000" fill-opacity="0" font-family="Arial,Arial_MSFontService,sans-serif" font-size="48.9668" x="2029.18" y="14265.2">=</text><path d="M2248.57 14085.9 2244.82 14112.4 2272.25 14112.4 2276 14085.9ZM2243.21 14038.3 2255.27 14038.3 2249.91 14075.6 2277.43 14075.6 2282.7 14038.3 2294.68 14038.3 2289.32 14075.6 2307.19 14075.6 2307.19 14085.9 2287.98 14085.9 2284.22 14112.4 2302.9 14112.4 2302.9 14122.6 2282.7 14122.6 2277.52 14160.4 2265.46 14160.4 2270.82 14122.6 2243.39 14122.6 2238.21 14160.4 2226.14 14160.4 2231.41 14122.6 2213.54 14122.6 2213.54 14112.4 2232.76 14112.4 2236.6 14085.9 2218.01 14085.9 2218.01 14075.6 2238.03 14075.6Z" fill-rule="evenodd"/><text fill="#000000" fill-opacity="0" font-family="Arial,Arial_MSFontService,sans-serif" font-size="122.06" x="2213.54" y="14145.1">#</text><path d="M2413.82 14080.7C2407.62 14080.7 2402.22 14083.3 2397.6 14088.5 2392.98 14093.6 2389.35 14101.1 2386.7 14110.7 2384.05 14120.4 2382.72 14128.7 2382.72 14135.6 2382.72 14142.2 2384.08 14147 2386.79 14150.2 2389.5 14153.3 2393.59 14154.8 2399.07 14154.8 2404.91 14154.8 2410.1 14152.2 2414.62 14147 2419.15 14141.7 2422.72 14134.4 2425.35 14125 2427.97 14115.5 2429.28 14107.2 2429.28 14100.1 2429.28 14093.6 2428.03 14088.8 2425.52 14085.6 2423.02 14082.3 2419.12 14080.7 2413.82 14080.7ZM2415.61 14073.5C2425.14 14073.5 2432.4 14076.1 2437.41 14081.4 2442.41 14086.6 2444.91 14094 2444.91 14103.7 2444.91 14110.6 2443.71 14118 2441.3 14125.9 2438.88 14133.8 2435.58 14140.4 2431.38 14145.7 2427.18 14151.1 2422.16 14155.1 2416.32 14157.8 2410.48 14160.6 2403.78 14161.9 2396.22 14161.9 2386.98 14161.9 2379.82 14159.3 2374.73 14154.1 2369.63 14149 2367.09 14141.5 2367.09 14131.8 2367.09 14127 2367.8 14121.5 2369.23 14115.3 2371.08 14106.8 2374.17 14099.4 2378.52 14093.1 2382.87 14086.8 2388.23 14082 2394.61 14078.6 2400.98 14075.2 2407.98 14073.5 2415.61 14073.5ZM2538.43 14032.1C2544.27 14032.1 2549.3 14032.6 2553.53 14033.5L2550.05 14048.7 2542.18 14048.7C2541.35 14045.3 2540.26 14042.9 2538.92 14041.4 2537.58 14039.9 2535.6 14039.1 2532.98 14039.1 2529.58 14039.1 2526.71 14040.1 2524.36 14041.9 2522 14043.8 2519.99 14046.6 2518.32 14050.3 2516.66 14054 2515.11 14059 2513.68 14065.2L2511.44 14075 2534.41 14075 2532.44 14084 2509.39 14084 2492.77 14161.9C2490.03 14174.8 2485.83 14184.5 2480.17 14190.8 2474.51 14197.2 2467.39 14200.3 2458.81 14200.3 2456.31 14200.3 2454.35 14200.2 2452.92 14199.9L2454.44 14192C2455.03 14192.2 2456.43 14192.3 2458.63 14192.3 2461.32 14192.3 2463.61 14191.6 2465.52 14190.2 2467.42 14188.9 2469.19 14186.5 2470.83 14183.1 2472.47 14179.7 2473.97 14175 2475.34 14169L2494.56 14084 2479.45 14084 2480.79 14077.8C2484.79 14077.6 2487.66 14077.3 2489.42 14076.8 2491.18 14076.4 2492.55 14075.8 2493.53 14075 2494.51 14074.1 2495.34 14073 2496.03 14071.7 2496.72 14070.4 2497.59 14067.9 2498.67 14064.3 2501.82 14053.6 2506.69 14045.6 2513.28 14040.2 2519.86 14034.8 2528.24 14032.1 2538.43 14032.1Z" fill-rule="evenodd"/><text fill="#000000" fill-opacity="0" font-family="Arial,Arial_MSFontService,sans-serif" font-size="168.256" x="2367.09" y="14179.3">ğ‘œğ‘“</text><path d="M2937.41 14080.5C2931.39 14080.5 2925.6 14083.5 2920.03 14089.6 2914.46 14095.7 2910.18 14103.9 2907.21 14114.3 2915.6 14114.2 2922.81 14113.5 2928.83 14112 2934.85 14110.5 2939.46 14108.2 2942.68 14105 2945.9 14101.8 2947.5 14097.5 2947.5 14092.1 2947.5 14088.5 2946.66 14085.6 2944.96 14083.6 2943.26 14081.5 2940.74 14080.5 2937.41 14080.5ZM2846.41 14080.5C2840.39 14080.5 2834.6 14083.5 2829.03 14089.6 2823.46 14095.7 2819.18 14103.9 2816.21 14114.3 2824.6 14114.2 2831.81 14113.5 2837.83 14112 2843.85 14110.5 2848.46 14108.2 2851.68 14105 2854.9 14101.8 2856.5 14097.5 2856.5 14092.1 2856.5 14088.5 2855.66 14085.6 2853.96 14083.6 2852.26 14081.5 2849.74 14080.5 2846.41 14080.5ZM2940.62 14073.4C2947.83 14073.4 2953.24 14074.9 2956.84 14077.8 2960.45 14080.7 2962.25 14085.3 2962.25 14091.5 2962.25 14101.6 2957.5 14109.2 2948 14114.3 2938.49 14119.3 2924.39 14121.9 2905.69 14121.9 2904.97 14125.5 2904.61 14129.3 2904.61 14133.5 2904.61 14139.7 2905.84 14144.3 2908.28 14147.1 2910.72 14150 2914.71 14151.4 2920.25 14151.4 2925.73 14151.4 2930.69 14150.2 2935.13 14147.8 2939.57 14145.4 2944.26 14141.7 2949.2 14136.8L2954.74 14142.6C2948.96 14149 2943.11 14153.8 2937.18 14157 2931.26 14160.2 2924.36 14161.8 2916.5 14161.8 2907.86 14161.8 2901.17 14159.2 2896.44 14153.9 2891.7 14148.6 2889.33 14141.3 2889.33 14131.9 2889.33 14125.5 2890.48 14118.7 2892.77 14111.4 2895.07 14104.1 2898.54 14097.5 2903.18 14091.7 2907.83 14085.9 2913.4 14081.4 2919.89 14078.2 2926.39 14075 2933.3 14073.4 2940.62 14073.4ZM2849.62 14073.4C2856.83 14073.4 2862.24 14074.9 2865.84 14077.8 2869.45 14080.7 2871.25 14085.3 2871.25 14091.5 2871.25 14101.6 2866.5 14109.2 2857 14114.3 2847.49 14119.3 2833.39 14121.9 2814.69 14121.9 2813.97 14125.5 2813.61 14129.3 2813.61 14133.5 2813.61 14139.7 2814.84 14144.3 2817.28 14147.1 2819.72 14150 2823.71 14151.4 2829.25 14151.4 2834.73 14151.4 2839.69 14150.2 2844.13 14147.8 2848.57 14145.4 2853.26 14141.7 2858.2 14136.8L2863.74 14142.6C2857.96 14149 2852.11 14153.8 2846.18 14157 2840.26 14160.2 2833.36 14161.8 2825.5 14161.8 2816.86 14161.8 2810.17 14159.2 2805.44 14153.9 2800.7 14148.6 2798.33 14141.3 2798.33 14131.9 2798.33 14125.5 2799.48 14118.7 2801.77 14111.4 2804.07 14104.1 2807.54 14097.5 2812.18 14091.7 2816.83 14085.9 2822.4 14081.4 2828.89 14078.2 2835.39 14075 2842.3 14073.4 2849.62 14073.4ZM2730.01 14073.4C2733.76 14073.4 2736.73 14074.7 2738.9 14077.2 2741.07 14079.6 2742.16 14082.9 2742.16 14086.9 2742.16 14089.8 2741.6 14092.9 2740.46 14096.1L2741.63 14096.5C2747.46 14088.6 2753.08 14082.8 2758.47 14079.1 2763.86 14075.4 2769.33 14073.5 2774.87 14073.5 2779.21 14073.5 2782.85 14073.9 2785.77 14074.5L2781.48 14094.5 2772.27 14094.5C2771.92 14092 2771.41 14090.1 2770.76 14088.7 2770.1 14087.4 2769.33 14086.4 2768.43 14085.9 2767.54 14085.3 2766.41 14085.1 2765.04 14085.1 2762.89 14085.1 2760.55 14086 2758.02 14087.8 2755.49 14089.7 2752.65 14092.6 2749.49 14096.5 2746.33 14100.4 2743.82 14104.2 2741.94 14107.8 2740.06 14111.5 2738.5 14116.1 2737.25 14121.7L2728.76 14160.4 2713.3 14160.4 2726.26 14103.7C2727.09 14100.2 2727.63 14097.4 2727.87 14095.4 2728.1 14093.5 2728.22 14091.8 2728.22 14090.5 2728.22 14088.1 2727.84 14086.4 2727.06 14085.3 2726.29 14084.3 2725.07 14083.7 2723.4 14083.7 2721.55 14083.7 2719.6 14084.5 2717.54 14086 2715.49 14087.5 2712.67 14090.3 2709.1 14094.3L2704.01 14089.3C2709.49 14083.5 2714.07 14079.5 2717.77 14077.1 2721.46 14074.7 2725.54 14073.4 2730.01 14073.4ZM2685.12 14032.1C2690.96 14032.1 2696 14032.6 2700.23 14033.5L2696.74 14048.7 2688.88 14048.7C2688.04 14045.3 2686.96 14042.9 2685.62 14041.4 2684.28 14039.9 2682.3 14039.1 2679.67 14039.1 2676.28 14039.1 2673.4 14040.1 2671.05 14041.9 2668.7 14043.8 2666.69 14046.6 2665.02 14050.3 2663.35 14054 2661.8 14059 2660.37 14065.2L2658.14 14075 2681.1 14075 2679.14 14084 2656.08 14084 2639.46 14161.9C2636.72 14174.8 2632.52 14184.5 2626.87 14190.8 2621.21 14197.2 2614.09 14200.3 2605.51 14200.3 2603.01 14200.3 2601.04 14200.2 2599.61 14199.9L2601.13 14192C2601.73 14192.2 2603.13 14192.3 2605.33 14192.3 2608.01 14192.3 2610.3 14191.6 2612.21 14190.2 2614.12 14188.9 2615.89 14186.5 2617.53 14183.1 2619.17 14179.7 2620.67 14175 2622.04 14169L2641.25 14084 2626.15 14084 2627.49 14077.8C2631.48 14077.6 2634.36 14077.3 2636.11 14076.8 2637.87 14076.4 2639.24 14075.8 2640.22 14075 2641.21 14074.1 2642.04 14073 2642.73 14071.7 2643.41 14070.4 2644.29 14067.9 2645.36 14064.3 2648.52 14053.6 2653.39 14045.6 2659.97 14040.2 2666.55 14034.8 2674.94 14032.1 2685.12 14032.1Z" fill-rule="evenodd"/><text fill="#000000" fill-opacity="0" font-family="Arial,Arial_MSFontService,sans-serif" font-size="168.256" x="2599.61" y="14179.3">ğ‘“ğ‘Ÿğ‘’ğ‘’</text><path d="M3165.96 14084C3162.92 14084 3159.93 14085 3156.98 14087.1 3154.03 14089.1 3150.8 14092.4 3147.28 14096.9 3143.77 14101.5 3141.03 14105.9 3139.06 14110.4 3137.1 14114.8 3135.55 14119.8 3134.42 14125.5L3133.7 14129.3C3133.11 14132.5 3132.73 14134.9 3132.58 14136.5 3132.44 14138.2 3132.36 14139.8 3132.36 14141.4 3132.36 14146.1 3133.36 14149.5 3135.35 14151.6 3137.35 14153.7 3140.79 14154.8 3145.68 14154.8 3148.71 14154.8 3151.51 14154.2 3154.07 14153 3156.64 14151.8 3159.06 14150.1 3161.36 14147.8 3163.65 14145.5 3165.72 14142.8 3167.57 14139.6 3169.41 14136.4 3171.07 14132.6 3172.53 14128.4 3173.99 14124.1 3175.09 14119.7 3175.83 14115.2 3176.58 14110.7 3176.95 14106.5 3176.95 14102.6 3176.95 14096.3 3176.07 14091.7 3174.31 14088.6 3172.56 14085.5 3169.77 14084 3165.96 14084ZM3445.65 14080.5C3439.63 14080.5 3433.84 14083.5 3428.27 14089.6 3422.7 14095.7 3418.43 14103.9 3415.45 14114.3 3423.85 14114.2 3431.05 14113.5 3437.07 14112 3443.09 14110.5 3447.7 14108.2 3450.92 14105 3454.14 14101.8 3455.75 14097.5 3455.75 14092.1 3455.75 14088.5 3454.9 14085.6 3453.2 14083.6 3451.5 14081.5 3448.99 14080.5 3445.65 14080.5ZM3259.47 14080.5C3253.33 14080.5 3247.82 14083 3242.94 14087.9 3238.05 14092.9 3234.24 14099.5 3231.5 14107.8 3228.76 14116.1 3227.39 14124.4 3227.39 14132.7 3227.39 14138.9 3228.24 14143.5 3229.94 14146.6 3231.64 14149.7 3234.48 14151.2 3238.47 14151.2 3242.4 14151.2 3246.26 14149.5 3250.04 14146.1 3253.83 14142.7 3257.73 14137.9 3261.75 14131.6 3265.77 14125.3 3268.61 14118 3270.28 14109.8L3271.09 14106C3271.62 14103.5 3271.98 14101.4 3272.16 14099.6 3272.34 14097.8 3272.43 14095.9 3272.43 14093.8 3272.43 14089.2 3271.44 14085.9 3269.48 14083.7 3267.51 14081.6 3264.18 14080.5 3259.47 14080.5ZM3363.35 14073.5C3371.27 14073.5 3378.57 14074.4 3385.24 14076.2L3380.86 14096.4 3371.48 14096.4C3371.36 14091.9 3370.99 14088.6 3370.36 14086.6 3369.74 14084.6 3368.72 14083 3367.32 14082 3365.92 14081 3363.94 14080.5 3361.38 14080.5 3355.36 14080.5 3349.96 14082.9 3345.16 14087.7 3340.37 14092.5 3336.45 14099.3 3333.41 14108.1 3330.37 14116.9 3328.86 14125.3 3328.86 14133.4 3328.86 14139.5 3330.05 14144 3332.43 14146.9 3334.81 14149.9 3338.39 14151.4 3343.15 14151.4 3348.57 14151.4 3353.26 14150.3 3357.23 14148.3 3361.19 14146.2 3365.37 14143 3369.78 14138.6L3375.23 14144C3369.63 14150.2 3363.99 14154.8 3358.3 14157.6 3352.61 14160.5 3346.49 14161.9 3339.94 14161.9 3331.3 14161.9 3324.75 14159.3 3320.28 14154.2 3315.81 14149.1 3313.58 14141.7 3313.58 14131.9 3313.58 14125.5 3314.77 14118.5 3317.15 14110.9 3319.53 14103.3 3323.02 14096.6 3327.6 14090.8 3332.19 14085 3337.55 14080.7 3343.69 14077.8 3349.82 14075 3356.38 14073.5 3363.35 14073.5ZM3065.05 14073.5C3070.59 14073.5 3075.64 14073.9 3080.2 14074.5 3084.76 14075.2 3089.3 14076.3 3093.83 14077.9L3089.81 14096.7 3082.57 14096.7C3081.91 14091.4 3080.17 14087.4 3077.34 14084.6 3074.51 14081.9 3070.06 14080.5 3063.98 14080.5 3059.28 14080.5 3055.46 14081.7 3052.54 14084.1 3049.63 14086.5 3048.17 14089.7 3048.17 14093.6 3048.17 14095.8 3048.54 14097.7 3049.28 14099.3 3050.03 14101 3051.53 14102.8 3053.8 14104.7 3056.06 14106.7 3059.57 14109.1 3064.34 14112 3068.09 14114.2 3071.1 14116.3 3073.36 14118.2 3075.63 14120 3077.41 14121.9 3078.73 14123.8 3080.04 14125.6 3080.99 14127.6 3081.58 14129.6 3082.18 14131.7 3082.48 14134.1 3082.48 14137.1 3082.48 14142.4 3081.06 14146.9 3078.23 14150.7 3075.4 14154.5 3071.56 14157.3 3066.71 14159.1 3061.85 14161 3056.33 14161.9 3050.13 14161.9 3045.19 14161.9 3040.33 14161.5 3035.57 14160.8 3030.8 14160 3025.5 14158.8 3019.66 14157L3023.95 14137.5 3030.92 14137.5C3031.16 14143.2 3032.77 14147.6 3035.75 14150.5 3038.72 14153.4 3043.46 14154.8 3049.95 14154.8 3055.61 14154.8 3060.04 14153.6 3063.22 14151.1 3066.41 14148.5 3068 14144.9 3068 14140.3 3068 14137.6 3067.56 14135.3 3066.66 14133.4 3065.77 14131.4 3064.31 14129.6 3062.28 14127.8 3060.26 14126 3057.04 14123.8 3052.63 14121.1 3047.99 14118.3 3044.37 14115.7 3041.78 14113.5 3039.19 14111.2 3037.23 14108.8 3035.92 14106.1 3034.61 14103.5 3033.96 14100.4 3033.96 14096.9 3033.96 14092.2 3035.22 14088.1 3037.76 14084.6 3040.29 14081 3043.91 14078.3 3048.61 14076.4 3053.32 14074.5 3058.8 14073.5 3065.05 14073.5ZM3448.87 14073.4C3456.07 14073.4 3461.48 14074.9 3465.08 14077.8 3468.69 14080.7 3470.49 14085.3 3470.49 14091.5 3470.49 14101.6 3465.74 14109.2 3456.24 14114.3 3446.74 14119.3 3432.63 14121.9 3413.93 14121.9 3413.21 14125.5 3412.86 14129.3 3412.86 14133.5 3412.86 14139.7 3414.08 14144.3 3416.52 14147.1 3418.96 14150 3422.95 14151.4 3428.49 14151.4 3433.97 14151.4 3438.93 14150.2 3443.37 14147.8 3447.81 14145.4 3452.5 14141.7 3457.44 14136.8L3462.98 14142.6C3457.21 14149 3451.35 14153.8 3445.43 14157 3439.5 14160.2 3432.6 14161.8 3424.74 14161.8 3416.1 14161.8 3409.42 14159.2 3404.68 14153.9 3399.94 14148.6 3397.58 14141.3 3397.58 14131.9 3397.58 14125.5 3398.72 14118.7 3401.02 14111.4 3403.31 14104.1 3406.78 14097.5 3411.43 14091.7 3416.07 14085.9 3421.64 14081.4 3428.14 14078.2 3434.63 14075 3441.54 14073.4 3448.87 14073.4ZM3257.68 14073.4C3261.56 14073.4 3265.17 14073.9 3268.54 14074.7 3271.91 14075.6 3275.38 14077.1 3278.95 14079.3L3287.17 14073.4 3292.89 14074.9 3279.75 14131.5C3278.44 14137.2 3277.79 14141.6 3277.79 14144.8 3277.79 14147.1 3278.18 14148.9 3278.95 14149.9 3279.72 14151 3280.95 14151.5 3282.61 14151.5 3284.4 14151.5 3286.31 14150.8 3288.33 14149.4 3290.36 14147.9 3293.22 14145.1 3296.91 14141L3302 14146C3296.64 14151.7 3292.07 14155.8 3288.29 14158.2 3284.5 14160.6 3280.41 14161.8 3276 14161.8 3272.31 14161.8 3269.36 14160.6 3267.16 14158.2 3264.95 14155.7 3263.85 14152.5 3263.85 14148.4 3263.85 14145.1 3264.53 14141.7 3265.9 14138L3264.74 14137.6C3259.02 14145.9 3253.6 14152 3248.48 14155.9 3243.36 14159.8 3237.94 14161.7 3232.22 14161.7 3225.66 14161.7 3220.59 14159.3 3216.98 14154.3 3213.38 14149.4 3211.58 14142.4 3211.58 14133.5 3211.58 14123.2 3213.59 14113.4 3217.61 14104 3221.63 14094.5 3227.15 14087.1 3234.18 14081.6 3241.21 14076.2 3249.05 14073.4 3257.68 14073.4ZM3128.34 14073.4C3132.03 14073.4 3134.97 14074.7 3137.14 14077.1 3139.32 14079.6 3140.4 14082.8 3140.4 14086.9 3140.4 14090.2 3139.72 14093.7 3138.35 14097.4L3139.42 14097.8C3150.44 14081.6 3161.4 14073.5 3172.3 14073.5 3178.8 14073.5 3183.85 14076 3187.45 14081 3191.05 14085.9 3192.86 14092.9 3192.86 14101.9 3192.86 14111.7 3190.87 14121.4 3186.91 14130.9 3182.95 14140.4 3177.46 14147.9 3170.43 14153.5 3163.4 14159 3155.53 14161.8 3146.84 14161.8 3138.91 14161.8 3132.33 14160.1 3127.09 14156.6L3122.98 14176.2C3122.09 14180.4 3121.64 14183.9 3121.64 14186.7 3121.64 14189.3 3122.31 14191.1 3123.65 14192.2 3124.99 14193.3 3127.6 14194.1 3131.47 14194.4L3130.75 14198.8 3103.14 14198.8 3124.68 14104C3125.93 14098.5 3126.55 14094 3126.55 14090.5 3126.55 14088.1 3126.17 14086.4 3125.39 14085.3 3124.62 14084.3 3123.4 14083.7 3121.73 14083.7 3119.88 14083.7 3117.93 14084.5 3115.88 14086 3113.82 14087.5 3111.01 14090.3 3107.43 14094.3L3102.34 14089.3C3107.7 14083.7 3112.24 14079.6 3115.96 14077.2 3119.69 14074.7 3123.81 14073.4 3128.34 14073.4Z" fill-rule="evenodd"/><text fill="#000000" fill-opacity="0" font-family="Arial,Arial_MSFontService,sans-serif" font-size="125.365" x="3019.66" y="14183.1">ğ‘ ğ‘ğ‘ğ‘ğ‘’</text><path d="M3548.41 14066.8 3641.34 14066.8 3641.34 14160.4 3548.41 14160.4Z" fill-rule="evenodd"/><text fill="#000000" fill-opacity="0" font-family="Arial,Arial_MSFontService,sans-serif" font-size="93.5547" x="3548.41" y="14148.7">âˆ</text><path d="M2752.39 14298.4C2757.04 14298.4 2761.18 14299.7 2764.81 14302.2 2768.45 14304.7 2771.69 14308.5 2774.55 14313.8L2761.24 14319.5C2758.8 14314.5 2756.58 14311.1 2754.58 14309.2 2752.59 14307.2 2750.16 14306.3 2747.3 14306.3 2745.87 14306.3 2744.53 14306.5 2743.28 14306.9 2742.03 14307.3 2740.95 14308 2740.06 14308.9 2739.17 14309.9 2738.36 14311.1 2737.65 14312.6 2736.93 14314 2736.22 14316.1 2735.5 14318.7 2734.79 14321.4 2733.75 14325.9 2732.38 14332.3L2720.76 14385.9C2719.99 14389.5 2719.38 14392.9 2718.93 14396.1 2718.48 14399.2 2718.26 14401.8 2718.26 14403.7 2718.26 14406.5 2718.88 14408.7 2720.13 14410.2 2721.39 14411.7 2723.32 14412.5 2725.94 14412.5 2727.97 14412.5 2729.86 14412 2731.62 14410.9 2733.37 14409.8 2736.52 14406.8 2741.04 14402.1L2746.32 14407C2741.91 14411.9 2738.33 14415.4 2735.59 14417.4 2732.85 14419.4 2730.05 14420.8 2727.19 14421.8 2724.33 14422.8 2721.15 14423.2 2717.63 14423.2 2713.16 14423.2 2709.44 14421.6 2706.46 14418.3 2703.48 14415 2702 14410.6 2702 14405.3 2702 14403.3 2702.22 14400.6 2702.67 14397.2 2703.11 14393.8 2703.66 14390.7 2704.32 14387.9L2709.68 14363.1 2666.79 14363.1 2660.89 14390.5C2660 14394.7 2658.87 14398.5 2657.5 14401.8 2656.13 14405.2 2654.4 14408.2 2652.31 14410.9 2650.23 14413.5 2647.47 14415.9 2644.05 14418 2640.62 14420 2637.48 14421.4 2634.62 14422.2 2631.76 14422.9 2628.72 14423.2 2625.51 14423.2 2620.98 14423.2 2616.93 14422 2613.35 14419.4 2609.78 14416.9 2606.59 14413 2603.79 14407.9L2615.95 14400.9C2618.45 14405.8 2620.86 14409.5 2623.18 14411.8 2625.51 14414.2 2628.07 14415.4 2630.87 14415.4 2632.3 14415.4 2633.73 14415.1 2635.16 14414.5 2636.59 14414 2637.88 14412.8 2639.04 14411.2 2640.21 14409.5 2641.22 14407.1 2642.08 14404.1 2642.95 14401.1 2644.09 14396.2 2645.52 14389.4L2657.32 14332.4C2658.21 14328.1 2659.49 14323.9 2661.16 14319.9 2662.83 14315.9 2664.44 14313.1 2665.99 14311.3L2665.81 14310.4C2655.92 14310.4 2648.43 14310.8 2643.33 14311.7 2638.24 14312.6 2634.58 14314.1 2632.34 14316.3 2630.11 14318.4 2628.99 14321.5 2628.99 14325.6 2628.99 14328.6 2630.03 14332.3 2632.12 14336.6L2618.36 14342C2617.05 14339.9 2616.11 14337.9 2615.54 14336 2614.98 14334.1 2614.7 14332 2614.7 14329.8 2614.7 14327.7 2615.25 14325.5 2616.35 14323.2 2617.45 14320.9 2619.34 14318.4 2622.02 14315.8 2625.12 14312.8 2628.99 14309.9 2633.64 14307.1 2637.39 14304.8 2640.97 14303.2 2644.36 14302.2 2647.76 14301.2 2651.51 14300.5 2655.62 14300.2 2658.36 14299.9 2662.53 14299.8 2668.13 14299.8L2678.32 14299.8 2680.73 14305.1C2679.66 14307.4 2678.73 14310 2677.96 14312.9 2677.18 14315.8 2676.41 14319 2675.64 14322.4L2669.2 14352.6 2712 14352.6 2716.65 14331.5C2717.66 14326.9 2718.88 14323 2720.31 14319.7 2721.74 14316.3 2723.49 14313.4 2725.54 14310.8 2727.6 14308.2 2730.34 14305.8 2733.76 14303.7 2737.19 14301.6 2740.34 14300.2 2743.23 14299.5 2746.12 14298.8 2749.18 14298.4 2752.39 14298.4Z" fill-rule="evenodd"/><text fill="#000000" fill-opacity="0" font-family="Arial,Arial_MSFontService,sans-serif" font-size="124.829" x="2603.79" y="14407.6">â„‹</text><path d="M2812.54 14369.9C2806.52 14369.9 2801.56 14372.5 2797.66 14377.8 2793.75 14383 2790.69 14390.8 2788.47 14401.3L2779.5 14442.3C2779.28 14443 2779.14 14443.7 2779.08 14444.2 2779.01 14444.8 2778.98 14445.3 2778.98 14445.7 2778.98 14447.9 2780.22 14449.9 2782.71 14451.4 2785.19 14453 2788.9 14453.8 2793.83 14453.8 2796.8 14453.8 2799.5 14453.2 2801.94 14452.1 2804.39 14451 2806.47 14449.3 2808.19 14447.2 2809.92 14445 2811.25 14442.4 2812.18 14439.3 2813.12 14436.2 2813.59 14432.7 2813.59 14428.7 2813.59 14423.8 2812.09 14419.8 2809.08 14416.9 2806.07 14413.9 2801.81 14412.3 2796.32 14412L2797.36 14406.4C2801.33 14406 2804.95 14405.2 2808.23 14403.9 2811.5 14402.6 2814.3 14400.8 2816.63 14398.7 2818.97 14396.5 2820.77 14394 2822.03 14391.1 2823.3 14388.2 2823.93 14385 2823.93 14381.6 2823.93 14377.8 2822.96 14374.9 2821.02 14372.9 2819.08 14370.9 2816.25 14369.9 2812.54 14369.9ZM2812.94 14363.5C2816.64 14363.5 2819.95 14363.9 2822.85 14364.8 2825.75 14365.6 2828.21 14366.9 2830.24 14368.5 2832.27 14370.1 2833.82 14372 2834.89 14374.4 2835.96 14376.7 2836.49 14379.3 2836.49 14382.2 2836.49 14385 2836.03 14387.8 2835.12 14390.5 2834.2 14393.1 2832.73 14395.6 2830.7 14398 2828.67 14400.3 2826.03 14402.5 2822.78 14404.4 2819.53 14406.4 2815.58 14408 2810.91 14409.4L2810.78 14410.3C2816.19 14412.5 2820.2 14415.3 2822.82 14418.8 2825.43 14422.2 2826.74 14426.3 2826.74 14431 2826.74 14435.1 2826 14439 2824.52 14442.6 2823.03 14446.2 2820.94 14449.3 2818.24 14451.9 2815.53 14454.5 2812.29 14456.6 2808.52 14458 2804.75 14459.5 2800.55 14460.3 2795.93 14460.3 2792.13 14460.3 2788.68 14460 2785.59 14459.4 2782.49 14458.8 2779.35 14457.8 2776.17 14456.4L2769.23 14487.2 2756.8 14487.2 2776.3 14400.3C2779.13 14387.7 2783.62 14378.4 2789.77 14372.5 2795.93 14366.5 2803.65 14363.5 2812.94 14363.5Z" fill-rule="evenodd"/><text fill="#000000" fill-opacity="0" font-family="Arial,Arial_MSFontService,sans-serif" font-size="123.728" x="2756.8" y="14471.8">ğ›½</text><path d="M2920.9 14320.6 2961.38 14360.9 3001.86 14320.6 3010.26 14328.9 2970.23 14369.6 3010.35 14410.2 3001.41 14419.1 2961.38 14378.3 2920.1 14418.8 2911.79 14410.4 2952.63 14369.6 2911.97 14329.5Z" fill-rule="evenodd"/><text fill="#000000" fill-opacity="0" font-family="Arial,Arial_MSFontService,sans-serif" font-size="98.5586" x="2911.79" y="14406.8">Ã—</text><path d="M3099.46 14298.4C3105.12 14298.4 3109.54 14299.9 3112.73 14302.9 3115.92 14305.8 3117.94 14310.5 3118.81 14316.8 3119.67 14323.1 3120.1 14333.4 3120.1 14347.5 3120.1 14364.7 3119.42 14384.1 3118.05 14405.7L3118.94 14405.7C3130.68 14392.8 3140.59 14380.8 3148.7 14369.4 3156.8 14358.1 3162.47 14348.8 3165.72 14341.4 3168.96 14334 3170.59 14327.8 3170.59 14322.8 3170.59 14318.2 3169.77 14314.8 3168.13 14312.5 3166.49 14310.2 3163.95 14309 3160.49 14309 3157.39 14309 3154.22 14310.1 3150.97 14312.2 3147.73 14314.2 3144.38 14317.3 3140.92 14321.2L3135.65 14316.3C3141.96 14309.4 3147.4 14304.7 3151.96 14302.2 3156.51 14299.7 3161.68 14298.4 3167.46 14298.4 3173.12 14298.4 3177.54 14299.9 3180.73 14302.9 3183.92 14305.8 3185.94 14310.5 3186.81 14316.8 3187.67 14323.1 3188.1 14333.4 3188.1 14347.5 3188.1 14364.7 3187.42 14384.1 3186.05 14405.7L3186.94 14405.7C3197.07 14394.6 3206.2 14383.6 3214.33 14372.5 3222.46 14361.4 3228.64 14351.5 3232.87 14342.7 3237.1 14333.9 3239.21 14326.6 3239.21 14320.7 3239.21 14317 3238.59 14314.1 3237.34 14312.1 3236.08 14310 3234.03 14309 3231.17 14309 3229.2 14309 3227.15 14309.6 3225 14310.6 3222.86 14311.6 3219.79 14313.9 3215.8 14317.3L3210.53 14312.4C3216.01 14307.1 3220.83 14303.5 3225 14301.4 3229.17 14299.4 3233.61 14298.4 3238.32 14298.4 3250.53 14298.4 3256.64 14304.4 3256.64 14316.5 3256.64 14325.6 3250.71 14339 3238.85 14356.6 3227 14374.3 3209.87 14395.2 3187.48 14419.3L3175.5 14423.2 3171.84 14423.2C3172.79 14398.6 3173.27 14378.1 3173.27 14361.8L3173.27 14355.7C3173.27 14353.8 3173.24 14351.9 3173.18 14350L3172.11 14350C3167.22 14359.5 3160.55 14369.8 3152.09 14381 3143.63 14392.2 3132.76 14404.9 3119.48 14419.3L3107.06 14423.2 3103.39 14423.2C3103.81 14402.9 3104.02 14387.2 3104.02 14376.2 3104.02 14364.6 3103.87 14354.9 3103.57 14347.3 3103.27 14339.7 3102.89 14333 3102.41 14327.2 3101.93 14321.4 3101.23 14317.3 3100.31 14315 3099.39 14312.7 3098.31 14311.1 3097.09 14310.3 3095.87 14309.5 3094.34 14309 3092.49 14309 3089.39 14309 3086.22 14310.1 3082.97 14312.2 3079.73 14314.2 3076.38 14317.3 3072.92 14321.2L3067.65 14316.3C3072.59 14311 3076.62 14307.3 3079.71 14305 3082.81 14302.7 3085.91 14301 3089.01 14300 3092.1 14298.9 3095.59 14298.4 3099.46 14298.4Z" fill-rule="evenodd"/><text fill="#000000" fill-opacity="0" font-family="Arial,Arial_MSFontService,sans-serif" font-size="124.829" x="3067.65" y="14407.6">ğ’²</text><path d="M2203.87 14241.2 2935.37 14241.2 3666.87 14241.2 3666.87 14253.2 2935.37 14253.2 2203.87 14253.2Z" fill-rule="evenodd"/><path d="M328.5 12983.5 328.5 13174.4" stroke="#000000" stroke-width="4.58333" stroke-miterlimit="8" fill="none" fill-rule="evenodd"/><path d="M4268.5 12983.5 4268.5 13174.4" stroke="#000000" stroke-width="4.58333" stroke-miterlimit="8" fill="none" fill-rule="evenodd"/><rect x="725.5" y="13112.5" width="197" height="182" stroke="#000000" stroke-width="1.14583" stroke-miterlimit="8" fill="#FFFFFF"/><rect x="922.5" y="13112.5" width="197" height="182" stroke="#000000" stroke-width="1.14583" stroke-miterlimit="8" fill="#FFFFFF"/><rect x="1119.5" y="13112.5" width="197" height="182" stroke="#000000" stroke-width="1.14583" stroke-miterlimit="8" fill="#FFFFFF"/><rect x="2103.5" y="13112.5" width="197" height="182" stroke="#000000" stroke-width="1.14583" stroke-miterlimit="8" fill="#FFFFFF"/><rect x="2300.5" y="13659.5" width="196" height="183" stroke="#000000" stroke-width="1.14583" stroke-miterlimit="8" fill="#FFFFFF"/><path d="M209.5 13111.5 2426.9 13111.5" stroke="#000000" stroke-width="4.58333" stroke-miterlimit="8" fill="none" fill-rule="evenodd"/><path d="M209.5 13842.5 2426.9 13842.5" stroke="#000000" stroke-width="4.58333" stroke-miterlimit="8" fill="none" fill-rule="evenodd"/><path d="M237.426 13395.2 237.226 13138.4 241.81 13138.4 242.009 13395.2ZM225.771 13143 239.5 13115.5 253.271 13143Z"/><path d="M2.29167-2.99887e-06 2.292 252.869-2.29134 252.869-2.29167 2.99887e-06ZM13.7503 248.286 0.000360892 275.786-13.7497 248.286Z" transform="matrix(-1 0 0 1 239.5 13564.5)"/><path d="M254.798 13430.1C258.048 13430.1 260.944 13431 263.486 13432.7 266.028 13434.5 268.298 13437.2 270.298 13440.8L260.986 13444.8C259.278 13441.4 257.726 13439 256.33 13437.6 254.934 13436.3 253.236 13435.6 251.236 13435.6 250.236 13435.6 249.298 13435.7 248.423 13436 247.548 13436.3 246.798 13436.8 246.173 13437.5 245.548 13438.1 244.986 13439 244.486 13440 243.986 13441 243.486 13442.4 242.986 13444.3 242.486 13446.2 241.757 13449.3 240.798 13453.8L232.673 13491.3C232.132 13493.8 231.705 13496.2 231.392 13498.4 231.08 13500.6 230.923 13502.4 230.923 13503.7 230.923 13505.7 231.361 13507.2 232.236 13508.3 233.111 13509.4 234.465 13509.9 236.298 13509.9 237.715 13509.9 239.038 13509.5 240.267 13508.7 241.496 13508 243.694 13505.9 246.861 13502.6L250.548 13506C247.465 13509.5 244.965 13511.9 243.048 13513.3 241.132 13514.7 239.173 13515.7 237.173 13516.4 235.173 13517.1 232.944 13517.4 230.486 13517.4 227.361 13517.4 224.757 13516.2 222.673 13513.9 220.59 13511.6 219.548 13508.6 219.548 13504.8 219.548 13503.5 219.705 13501.6 220.017 13499.2 220.33 13496.8 220.715 13494.7 221.173 13492.7L224.923 13475.3 194.923 13475.3 190.798 13494.5C190.173 13497.4 189.382 13500.1 188.423 13502.4 187.465 13504.8 186.257 13506.9 184.798 13508.7 183.34 13510.6 181.413 13512.3 179.017 13513.7 176.621 13515.2 174.423 13516.1 172.423 13516.6 170.423 13517.1 168.298 13517.4 166.048 13517.4 162.882 13517.4 160.048 13516.5 157.548 13514.7 155.048 13513 152.819 13510.3 150.861 13506.6L159.361 13501.8C161.111 13505.2 162.798 13507.8 164.423 13509.4 166.048 13511.1 167.84 13511.9 169.798 13511.9 170.798 13511.9 171.798 13511.7 172.798 13511.3 173.798 13510.9 174.705 13510.1 175.517 13509 176.33 13507.8 177.038 13506.1 177.642 13504 178.246 13501.9 179.048 13498.5 180.048 13493.7L188.298 13453.9C188.923 13450.9 189.819 13447.9 190.986 13445.1 192.153 13442.4 193.278 13440.3 194.361 13439.1L194.236 13438.5C187.319 13438.5 182.08 13438.8 178.517 13439.4 174.955 13440 172.392 13441.1 170.83 13442.6 169.267 13444.1 168.486 13446.3 168.486 13449.1 168.486 13451.2 169.215 13453.8 170.673 13456.8L161.048 13460.6C160.132 13459.1 159.476 13457.7 159.08 13456.4 158.684 13455.1 158.486 13453.6 158.486 13452 158.486 13450.6 158.871 13449 159.642 13447.4 160.413 13445.8 161.736 13444.1 163.611 13442.3 165.778 13440.1 168.486 13438.1 171.736 13436.1 174.361 13434.6 176.861 13433.4 179.236 13432.7 181.611 13432.1 184.236 13431.6 187.111 13431.3 189.028 13431.2 191.944 13431.1 195.861 13431.1L202.986 13431.1 204.673 13434.8C203.923 13436.4 203.278 13438.2 202.736 13440.2 202.194 13442.3 201.653 13444.5 201.111 13446.9L196.611 13468 226.548 13468 229.798 13453.2C230.507 13450 231.361 13447.3 232.361 13445 233.361 13442.6 234.58 13440.6 236.017 13438.7 237.455 13436.9 239.371 13435.3 241.767 13433.8 244.163 13432.3 246.371 13431.3 248.392 13430.8 250.413 13430.3 252.548 13430.1 254.798 13430.1Z" fill-rule="evenodd"/><text fill="#000000" fill-opacity="0" font-family="Arial,Arial_MSFontService,sans-serif" font-size="87.3125" x="150.861" y="13506.5">â„‹</text><path d="M296.469 13480.6C292.291 13480.6 288.848 13482.4 286.138 13486.1 283.429 13489.7 281.302 13495.1 279.758 13502.4L273.537 13530.8C273.386 13531.3 273.287 13531.8 273.242 13532.2 273.196 13532.6 273.174 13532.9 273.174 13533.2 273.174 13534.8 274.036 13536.1 275.762 13537.2 277.488 13538.3 280.061 13538.8 283.482 13538.8 285.54 13538.8 287.417 13538.4 289.113 13537.6 290.808 13536.9 292.253 13535.7 293.449 13534.2 294.645 13532.8 295.568 13530.9 296.219 13528.8 296.87 13526.6 297.196 13524.2 297.196 13521.4 297.196 13518 296.151 13515.2 294.062 13513.2 291.973 13511.1 289.022 13510 285.207 13509.9L285.934 13505.9C288.689 13505.7 291.201 13505.1 293.472 13504.2 295.742 13503.3 297.688 13502.1 299.307 13500.6 300.927 13499.1 302.176 13497.3 303.054 13495.3 303.931 13493.3 304.37 13491.1 304.37 13488.7 304.37 13486.1 303.697 13484.1 302.35 13482.7 301.003 13481.3 299.042 13480.6 296.469 13480.6ZM296.742 13476.2C299.315 13476.2 301.608 13476.5 303.621 13477 305.634 13477.6 307.345 13478.5 308.753 13479.6 310.16 13480.7 311.235 13482.1 311.977 13483.7 312.718 13485.3 313.089 13487.1 313.089 13489.1 313.089 13491.1 312.771 13493 312.136 13494.9 311.5 13496.7 310.478 13498.5 309.07 13500.1 307.663 13501.7 305.831 13503.2 303.576 13504.6 301.32 13505.9 298.573 13507.1 295.334 13508L295.243 13508.6C298.997 13510.1 301.782 13512.1 303.598 13514.5 305.415 13516.9 306.323 13519.7 306.323 13523 306.323 13525.9 305.808 13528.6 304.779 13531.1 303.75 13533.5 302.297 13535.7 300.42 13537.5 298.543 13539.3 296.295 13540.7 293.676 13541.8 291.058 13542.8 288.144 13543.3 284.935 13543.3 282.301 13543.3 279.909 13543.1 277.76 13542.7 275.611 13542.3 273.431 13541.6 271.221 13540.6L266.408 13562 257.78 13562 271.312 13501.7C273.28 13493 276.398 13486.5 280.666 13482.4 284.935 13478.2 290.293 13476.2 296.742 13476.2Z" fill-rule="evenodd"/><text fill="#000000" fill-opacity="0" font-family="Arial,Arial_MSFontService,sans-serif" font-size="85.8701" x="257.78" y="13551.3">ğ›½</text><rect x="332.5" y="13112.5" width="196" height="182" stroke="#FFFFFF" stroke-width="1.14583" stroke-miterlimit="8"/><rect x="528.5" y="13112.5" width="197" height="182" stroke="#FFFFFF" stroke-width="1.14583" stroke-miterlimit="8"/><rect x="1316.5" y="13112.5" width="196" height="182" stroke="#FFFFFF" stroke-width="1.14583" stroke-miterlimit="8"/><rect x="1512.5" y="13112.5" width="197" height="182" stroke="#000000" stroke-width="1.14583" stroke-miterlimit="8" fill="#FFFFFF"/><rect x="1709.5" y="13112.5" width="197" height="182" stroke="#FFFFFF" stroke-width="1.14583" stroke-miterlimit="8"/><rect x="1906.5" y="13112.5" width="197" height="182" stroke="#FFFFFF" stroke-width="1.14583" stroke-miterlimit="8"/><rect x="2300.5" y="13112.5" width="196" height="182" stroke="#FFFFFF" stroke-width="1.14583" stroke-miterlimit="8"/><rect x="2496.5" y="13112.5" width="197" height="182" stroke="#FFFFFF" stroke-width="1.14583" stroke-miterlimit="8"/><rect x="2693.5" y="13112.5" width="197" height="182" stroke="#FFFFFF" stroke-width="1.14583" stroke-miterlimit="8"/><rect x="2890.5" y="13112.5" width="197" height="182" stroke="#000000" stroke-width="1.14583" stroke-miterlimit="8" fill="#FFFFFF"/><rect x="3087.5" y="13112.5" width="197" height="182" stroke="#FFFFFF" stroke-width="1.14583" stroke-miterlimit="8"/><rect x="3284.5" y="13112.5" width="196" height="182" stroke="#FFFFFF" stroke-width="1.14583" stroke-miterlimit="8"/><rect x="3480.5" y="13112.5" width="197" height="182" stroke="#FFFFFF" stroke-width="1.14583" stroke-miterlimit="8"/><rect x="3874.5" y="13112.5" width="197" height="182" stroke="#000000" stroke-width="1.14583" stroke-miterlimit="8" fill="#E7E6E6"/><rect x="4071.5" y="13112.5" width="197" height="182" stroke="#000000" stroke-width="1.14583" stroke-miterlimit="8" fill="#E7E6E6"/><rect x="332.5" y="13294.5" width="196" height="183" stroke="#FFFFFF" stroke-width="1.14583" stroke-miterlimit="8"/><rect x="528.5" y="13294.5" width="197" height="183" stroke="#000000" stroke-width="1.14583" stroke-miterlimit="8" fill="#FFFFFF"/><rect x="725.5" y="13294.5" width="197" height="183" stroke="#FFFFFF" stroke-width="1.14583" stroke-miterlimit="8"/><rect x="922.5" y="13294.5" width="197" height="183" stroke="#FFFFFF" stroke-width="1.14583" stroke-miterlimit="8"/><rect x="1119.5" y="13294.5" width="197" height="183" stroke="#FFFFFF" stroke-width="1.14583" stroke-miterlimit="8"/><rect x="1316.5" y="13294.5" width="196" height="183" stroke="#FFFFFF" stroke-width="1.14583" stroke-miterlimit="8"/><rect x="1512.5" y="13294.5" width="197" height="183" stroke="#FFFFFF" stroke-width="1.14583" stroke-miterlimit="8"/><rect x="1709.5" y="13294.5" width="197" height="183" stroke="#FFFFFF" stroke-width="1.14583" stroke-miterlimit="8"/><rect x="1906.5" y="13294.5" width="197" height="183" stroke="#FFFFFF" stroke-width="1.14583" stroke-miterlimit="8"/><rect x="2103.5" y="13294.5" width="197" height="183" stroke="#FFFFFF" stroke-width="1.14583" stroke-miterlimit="8"/><rect x="2300.5" y="13294.5" width="196" height="183" stroke="#FFFFFF" stroke-width="1.14583" stroke-miterlimit="8"/><rect x="2496.5" y="13294.5" width="197" height="183" stroke="#FFFFFF" stroke-width="1.14583" stroke-miterlimit="8"/><rect x="2693.5" y="13294.5" width="197" height="183" stroke="#FFFFFF" stroke-width="1.14583" stroke-miterlimit="8"/><rect x="2890.5" y="13294.5" width="197" height="183" stroke="#FFFFFF" stroke-width="1.14583" stroke-miterlimit="8"/><rect x="3087.5" y="13294.5" width="197" height="183" stroke="#FFFFFF" stroke-width="1.14583" stroke-miterlimit="8"/><rect x="3480.5" y="13294.5" width="197" height="183" stroke="#000000" stroke-width="1.14583" stroke-miterlimit="8" fill="#E7E6E6"/><rect x="3677.5" y="13294.5" width="197" height="183" stroke="#000000" stroke-width="1.14583" stroke-miterlimit="8" fill="#E7E6E6"/><rect x="3874.5" y="13294.5" width="197" height="183" stroke="#000000" stroke-width="1.14583" stroke-miterlimit="8" fill="#E7E6E6"/><rect x="4071.5" y="13294.5" width="197" height="183" stroke="#000000" stroke-width="1.14583" stroke-miterlimit="8" fill="#E7E6E6"/><rect x="332.5" y="13477.5" width="196" height="182" stroke="#000000" stroke-width="1.14583" stroke-miterlimit="8" fill="#FFFFFF"/><rect x="528.5" y="13477.5" width="197" height="182" stroke="#FFFFFF" stroke-width="1.14583" stroke-miterlimit="8"/><rect x="725.5" y="13477.5" width="197" height="182" stroke="#FFFFFF" stroke-width="1.14583" stroke-miterlimit="8"/><rect x="922.5" y="13477.5" width="197" height="182" stroke="#FFFFFF" stroke-width="1.14583" stroke-miterlimit="8"/><rect x="1119.5" y="13477.5" width="197" height="182" stroke="#FFFFFF" stroke-width="1.14583" stroke-miterlimit="8"/><rect x="1316.5" y="13477.5" width="196" height="182" stroke="#000000" stroke-width="1.14583" stroke-miterlimit="8" fill="#FFFFFF"/><rect x="1512.5" y="13477.5" width="197" height="182" stroke="#FFFFFF" stroke-width="1.14583" stroke-miterlimit="8"/><rect x="1709.5" y="13477.5" width="197" height="182" stroke="#FFFFFF" stroke-width="1.14583" stroke-miterlimit="8"/><rect x="1906.5" y="13477.5" width="197" height="182" stroke="#000000" stroke-width="1.14583" stroke-miterlimit="8" fill="#FFFFFF"/><rect x="2103.5" y="13477.5" width="197" height="182" stroke="#FFFFFF" stroke-width="1.14583" stroke-miterlimit="8"/><rect x="2300.5" y="13477.5" width="196" height="182" stroke="#FFFFFF" stroke-width="1.14583" stroke-miterlimit="8"/><rect x="2496.5" y="13477.5" width="197" height="182" stroke="#FFFFFF" stroke-width="1.14583" stroke-miterlimit="8"/><rect x="2693.5" y="13477.5" width="197" height="182" stroke="#FFFFFF" stroke-width="1.14583" stroke-miterlimit="8"/><rect x="2890.5" y="13477.5" width="197" height="182" stroke="#FFFFFF" stroke-width="1.14583" stroke-miterlimit="8"/><rect x="3087.5" y="13477.5" width="197" height="182" stroke="#FFFFFF" stroke-width="1.14583" stroke-miterlimit="8"/><rect x="3284.5" y="13477.5" width="196" height="182" stroke="#FFFFFF" stroke-width="1.14583" stroke-miterlimit="8"/><rect x="3480.5" y="13477.5" width="197" height="182" stroke="#FFFFFF" stroke-width="1.14583" stroke-miterlimit="8"/><rect x="3677.5" y="13477.5" width="197" height="182" stroke="#FFFFFF" stroke-width="1.14583" stroke-miterlimit="8"/><rect x="4071.5" y="13477.5" width="197" height="182" stroke="#000000" stroke-width="1.14583" stroke-miterlimit="8" fill="#E7E6E6"/><rect x="332.5" y="13659.5" width="196" height="183" stroke="#000000" stroke-width="1.14583" stroke-miterlimit="8" fill="#FFFFFF"/><rect x="528.5" y="13659.5" width="197" height="183" stroke="#FFFFFF" stroke-width="1.14583" stroke-miterlimit="8"/><rect x="725.5" y="13659.5" width="197" height="183" stroke="#FFFFFF" stroke-width="1.14583" stroke-miterlimit="8"/><rect x="922.5" y="13659.5" width="197" height="183" stroke="#FFFFFF" stroke-width="1.14583" stroke-miterlimit="8"/><rect x="1119.5" y="13659.5" width="197" height="183" stroke="#FFFFFF" stroke-width="1.14583" stroke-miterlimit="8"/><rect x="1316.5" y="13659.5" width="196" height="183" stroke="#FFFFFF" stroke-width="1.14583" stroke-miterlimit="8"/><rect x="1512.5" y="13659.5" width="197" height="183" stroke="#FFFFFF" stroke-width="1.14583" stroke-miterlimit="8"/><rect x="1709.5" y="13659.5" width="197" height="183" stroke="#FFFFFF" stroke-width="1.14583" stroke-miterlimit="8"/><rect x="1906.5" y="13659.5" width="197" height="183" stroke="#FFFFFF" stroke-width="1.14583" stroke-miterlimit="8"/><rect x="2103.5" y="13659.5" width="197" height="183" stroke="#FFFFFF" stroke-width="1.14583" stroke-miterlimit="8"/><rect x="2496.5" y="13659.5" width="197" height="183" stroke="#FFFFFF" stroke-width="1.14583" stroke-miterlimit="8"/><rect x="2693.5" y="13659.5" width="197" height="183" stroke="#FFFFFF" stroke-width="1.14583" stroke-miterlimit="8"/><rect x="2890.5" y="13659.5" width="197" height="183" stroke="#000000" stroke-width="1.14583" stroke-miterlimit="8" fill="#FFFFFF"/><rect x="3284.5" y="13659.5" width="196" height="183" stroke="#000000" stroke-width="1.14583" stroke-miterlimit="8" fill="#E7E6E6"/><rect x="3480.5" y="13659.5" width="197" height="183" stroke="#000000" stroke-width="1.14583" stroke-miterlimit="8" fill="#E7E6E6"/><rect x="3677.5" y="13659.5" width="197" height="183" stroke="#000000" stroke-width="1.14583" stroke-miterlimit="8" fill="#E7E6E6"/><rect x="3874.5" y="13659.5" width="197" height="183" stroke="#000000" stroke-width="1.14583" stroke-miterlimit="8" fill="#E7E6E6"/><rect x="4071.5" y="13659.5" width="197" height="183" stroke="#000000" stroke-width="1.14583" stroke-miterlimit="8" fill="#E7E6E6"/><rect x="332.5" y="13112.5" width="3936" height="730" stroke="#33BBC5" stroke-width="20.625" stroke-miterlimit="8" fill="none"/><path d="M4356.86 13090C4352.65 13090 4348.99 13092.3 4345.86 13096.8 4342.74 13101.3 4340.13 13108.1 4338.05 13117.3L4329.61 13155.4C4329.32 13156.7 4329.17 13158.2 4329.17 13159.7 4329.17 13162 4330.12 13163.9 4332.02 13165.3 4333.91 13166.7 4336.3 13167.5 4339.17 13167.5 4342.09 13167.5 4344.75 13166.4 4347.14 13164.3 4349.54 13162.2 4351.4 13159.4 4352.74 13155.7 4354.07 13152.1 4354.74 13148.1 4354.74 13143.8 4354.74 13139.4 4353.77 13136.1 4351.83 13133.8 4349.89 13131.5 4346.9 13130 4342.86 13129.2L4344.3 13122.8C4350.38 13122 4355.22 13119.4 4358.8 13115.2 4362.38 13111 4364.17 13105.7 4364.17 13099.4 4364.17 13096.3 4363.52 13093.9 4362.21 13092.4 4360.89 13090.8 4359.11 13090 4356.86 13090ZM4358.11 13083.5C4365.9 13083.5 4371.86 13084.9 4375.99 13087.8 4380.11 13090.6 4382.17 13094.7 4382.17 13100.1 4382.17 13106.1 4380.14 13111.3 4376.08 13115.7 4372.02 13120.1 4366.03 13123.5 4358.11 13126L4357.99 13126.8C4363.03 13128.5 4366.82 13131 4369.36 13134.3 4371.9 13137.6 4373.17 13141.6 4373.17 13146.3 4373.17 13151.6 4371.91 13156.4 4369.39 13160.6 4366.87 13164.8 4363.18 13168.1 4358.33 13170.4 4353.48 13172.8 4347.8 13174 4341.3 13174 4338.38 13174 4335.54 13173.7 4332.77 13173.1 4330 13172.5 4327.78 13171.8 4326.11 13171L4319.8 13200 4302.05 13200 4319.24 13121.7C4321.07 13113.4 4323.54 13106.5 4326.64 13101 4329.75 13095.4 4333.87 13091.1 4339.02 13088.1 4344.16 13085 4350.53 13083.5 4358.11 13083.5Z" fill="#33BBC5" fill-rule="evenodd"/><text fill="#000000" fill-opacity="0" font-family="Arial,Arial_MSFontService,sans-serif" font-size="116.438" x="4302.05" y="13185.4">ğœ·</text><rect x="3677" y="13112" width="197" height="182" stroke="#FF0000" stroke-width="13.75" stroke-miterlimit="8" fill="#FFFFFF"/><rect x="3284" y="13294" width="196" height="183" stroke="#FF0000" stroke-width="13.75" stroke-miterlimit="8" fill="#FFFFFF"/><rect x="3874" y="13477" width="197" height="182" stroke="#FF0000" stroke-width="13.75" stroke-miterlimit="8" fill="#FFFFFF"/><rect x="3087" y="13659" width="197" height="183" stroke="#FF0000" stroke-width="13.75" stroke-miterlimit="8" fill="#FFFFFF"/><rect x="4299.5" y="13351.5" width="151" height="140" stroke="#000000" stroke-width="1.14583" stroke-miterlimit="8" fill="#FFFFFF"/><rect x="4299.5" y="13522.5" width="151" height="140" stroke="#000000" stroke-width="1.14583" stroke-miterlimit="8"/><text font-family="Calibri,Calibri_MSFontService,sans-serif" font-weight="400" font-size="92" transform="matrix(1 0 0 1 4482.99 13452)">Feature, </text><path d="M4837.51 13408.2C4840.29 13408.2 4842.83 13408.4 4845.12 13408.7 4847.41 13409.1 4849.7 13409.6 4851.97 13410.4L4849.95 13419.9 4846.31 13419.9C4845.98 13417.2 4845.11 13415.2 4843.69 13413.8 4842.26 13412.4 4840.02 13411.7 4836.97 13411.7 4834.6 13411.7 4832.69 13412.3 4831.22 13413.6 4829.75 13414.8 4829.02 13416.4 4829.02 13418.3 4829.02 13419.4 4829.21 13420.4 4829.58 13421.2 4829.95 13422 4830.71 13422.9 4831.85 13423.9 4832.99 13424.9 4834.75 13426.1 4837.15 13427.6 4839.04 13428.7 4840.55 13429.7 4841.69 13430.7 4842.82 13431.6 4843.72 13432.6 4844.38 13433.5 4845.04 13434.4 4845.52 13435.4 4845.82 13436.4 4846.12 13437.5 4846.27 13438.7 4846.27 13440.2 4846.27 13442.8 4845.56 13445.1 4844.13 13447 4842.71 13448.9 4840.78 13450.3 4838.34 13451.3 4835.9 13452.2 4833.12 13452.7 4830.01 13452.7 4827.52 13452.7 4825.08 13452.5 4822.68 13452.1 4820.29 13451.7 4817.62 13451.1 4814.69 13450.2L4816.84 13440.4 4820.35 13440.4C4820.47 13443.3 4821.28 13445.4 4822.77 13446.9 4824.27 13448.4 4826.65 13449.1 4829.92 13449.1 4832.76 13449.1 4834.99 13448.5 4836.59 13447.2 4838.19 13445.9 4838.99 13444.1 4838.99 13441.8 4838.99 13440.4 4838.77 13439.3 4838.32 13438.3 4837.87 13437.3 4837.13 13436.4 4836.12 13435.5 4835.1 13434.6 4833.48 13433.5 4831.26 13432.1 4828.93 13430.7 4827.11 13429.5 4825.81 13428.3 4824.5 13427.2 4823.52 13425.9 4822.86 13424.6 4822.21 13423.3 4821.88 13421.7 4821.88 13420 4821.88 13417.6 4822.51 13415.6 4823.78 13413.8 4825.06 13412 4826.88 13410.6 4829.24 13409.7 4831.61 13408.7 4834.36 13408.2 4837.51 13408.2Z" fill-rule="evenodd"/><text fill="#000000" fill-opacity="0" font-family="Arial,Arial_MSFontService,sans-serif" font-size="44.4277" x="4814.69" y="13447.1">ğ‘ </text><path d="M4948.97 13383C4957.71 13385.3 4964.43 13390.3 4969.11 13398 4973.8 13405.6 4976.14 13414.8 4976.14 13425.7 4976.14 13436.5 4973.81 13445.7 4969.14 13453.4 4964.46 13461 4957.74 13465.9 4948.97 13468.2L4947.89 13464.8C4954.81 13462.5 4959.95 13457.9 4963.32 13451.1 4966.69 13444.3 4968.37 13435.7 4968.37 13425.2 4968.37 13415.1 4966.7 13406.7 4963.34 13400 4959.99 13393.3 4954.79 13388.8 4947.75 13386.5ZM4891.98 13383 4893.19 13386.5C4886.19 13388.8 4881 13393.3 4877.63 13400 4874.26 13406.7 4872.57 13415.1 4872.57 13425.2 4872.57 13435.7 4874.26 13444.3 4877.63 13451.1 4881 13457.9 4886.14 13462.5 4893.06 13464.8L4891.98 13468.2C4883.21 13465.9 4876.48 13461 4871.81 13453.4 4867.14 13445.7 4864.8 13436.5 4864.8 13425.7 4864.8 13414.8 4867.15 13405.6 4871.83 13398 4876.52 13390.3 4883.24 13385.3 4891.98 13383Z" fill-rule="evenodd"/><path d="M4926.07 13413.5C4924.63 13413.5 4923.22 13414 4921.82 13414.9 4920.43 13415.8 4918.88 13417.3 4917.17 13419.4 4915.47 13421.5 4914.08 13423.7 4913 13425.9 4911.92 13428.1 4911.01 13430.9 4910.26 13434.4L4909.85 13436.3C4909.4 13438.4 4909.18 13440.4 4909.18 13442.4 4909.18 13444.7 4909.7 13446.5 4910.73 13447.5 4911.76 13448.5 4913.48 13449.1 4915.87 13449.1 4917.1 13449.1 4918.27 13448.9 4919.38 13448.5 4920.48 13448.1 4921.61 13447.4 4922.77 13446.5 4923.92 13445.5 4925.01 13444.3 4926.05 13442.8 4927.08 13441.3 4928.03 13439.4 4928.9 13437.2 4929.77 13435 4930.44 13432.6 4930.92 13430.1 4931.4 13427.6 4931.64 13425.1 4931.64 13422.8 4931.64 13419.7 4931.2 13417.4 4930.31 13415.8 4929.43 13414.3 4928.02 13413.5 4926.07 13413.5ZM4918.21 13387.7 4920.81 13387.7 4912.91 13419.1 4913.49 13419.3C4916.4 13415.4 4919.12 13412.6 4921.67 13410.8 4924.21 13409.1 4926.76 13408.2 4929.3 13408.2 4932.57 13408.2 4935.11 13409.5 4936.92 13412 4938.73 13414.5 4939.64 13418 4939.64 13422.5 4939.64 13427.4 4938.64 13432.3 4936.65 13437.1 4934.66 13441.8 4931.89 13445.6 4928.36 13448.4 4924.83 13451.2 4920.87 13452.6 4916.5 13452.6 4912.52 13452.6 4908.98 13451.6 4905.9 13449.7L4901.77 13452.6 4898.89 13451.9 4910.53 13400.6C4911.22 13397.5 4911.56 13395.3 4911.56 13393.9 4911.56 13392.6 4911.18 13391.8 4910.41 13391.3 4909.65 13390.7 4908.28 13390.5 4906.3 13390.4L4906.84 13388.1Z" fill-rule="evenodd"/><text fill="#000000" fill-opacity="0" font-family="Arial,Arial_MSFontService,sans-serif" font-size="64.957" x="4898.89" y="13444.5">ğ‘</text><path d="M5016.24 13432 5071.59 13432 5071.59 13437.9 5016.24 13437.9ZM5016.24 13413.3 5071.59 13413.3 5071.59 13419.3 5016.24 13419.3Z" fill-rule="evenodd"/><text fill="#000000" fill-opacity="0" font-family="Arial,Arial_MSFontService,sans-serif" font-size="24.6172" x="5016.24" y="13434.9">=</text><path d="M5129.23 13393.7C5127.16 13393.7 5125.43 13394.3 5124.04 13395.5 5122.65 13396.8 5121.53 13398.5 5120.67 13400.8 5119.82 13403.1 5119.21 13405.9 5118.85 13409.2 5118.49 13412.6 5118.31 13416.3 5118.31 13420.5 5118.31 13430.2 5119.22 13437.4 5121.03 13442 5122.84 13446.5 5125.65 13448.8 5129.45 13448.8 5133.08 13448.8 5135.77 13446.7 5137.52 13442.4 5139.27 13438.1 5140.15 13431.4 5140.15 13422.4 5140.15 13415.5 5139.7 13409.9 5138.8 13405.7 5137.9 13401.4 5136.65 13398.3 5135.05 13396.5 5133.44 13394.6 5131.51 13393.7 5129.23 13393.7ZM5129.45 13389.9C5136.01 13389.9 5140.89 13392.4 5144.1 13397.5 5147.3 13402.5 5148.91 13410.2 5148.91 13420.4 5148.91 13431 5147.19 13439 5143.76 13444.5 5140.33 13449.9 5135.32 13452.6 5128.74 13452.6 5122.27 13452.6 5117.45 13450.1 5114.29 13445 5111.13 13439.9 5109.55 13432.2 5109.55 13421.8 5109.55 13416.3 5110.04 13411.5 5111.01 13407.5 5111.99 13403.5 5113.35 13400.2 5115.1 13397.6 5116.85 13394.9 5118.96 13393 5121.41 13391.8 5123.87 13390.5 5126.55 13389.9 5129.45 13389.9Z" fill-rule="evenodd"/><text fill="#000000" fill-opacity="0" font-family="Arial,Arial_MSFontService,sans-serif" font-size="62.7559" x="5109.55" y="13444.8">0</text><text font-family="Calibri,Calibri_MSFontService,sans-serif" font-weight="400" font-size="92" transform="matrix(1 0 0 1 4483.79 13623)">Free Space, </text><path d="M4957.38 13579.7C4960.17 13579.7 4962.7 13579.9 4965 13580.2 4967.29 13580.6 4969.57 13581.1 4971.85 13581.9L4969.82 13591.4 4966.19 13591.4C4965.86 13588.7 4964.98 13586.7 4963.56 13585.3 4962.14 13583.9 4959.9 13583.2 4956.84 13583.2 4954.48 13583.2 4952.56 13583.8 4951.09 13585.1 4949.62 13586.3 4948.89 13587.9 4948.89 13589.8 4948.89 13590.9 4949.08 13591.9 4949.45 13592.7 4949.83 13593.5 4950.58 13594.4 4951.72 13595.4 4952.86 13596.4 4954.63 13597.6 4957.02 13599 4958.91 13600.2 4960.42 13601.2 4961.56 13602.2 4962.7 13603.1 4963.6 13604 4964.25 13605 4964.91 13605.9 4965.39 13606.9 4965.69 13607.9 4965.99 13609 4966.14 13610.2 4966.14 13611.7 4966.14 13614.3 4965.43 13616.6 4964.01 13618.5 4962.58 13620.4 4960.65 13621.8 4958.21 13622.8 4955.77 13623.7 4952.99 13624.2 4949.88 13624.2 4947.39 13624.2 4944.95 13624 4942.56 13623.6 4940.16 13623.2 4937.5 13622.6 4934.56 13621.7L4936.72 13611.9 4940.22 13611.9C4940.34 13614.8 4941.15 13616.9 4942.65 13618.4 4944.14 13619.9 4946.53 13620.6 4949.79 13620.6 4952.63 13620.6 4954.86 13620 4956.46 13618.7 4958.06 13617.4 4958.86 13615.6 4958.86 13613.3 4958.86 13611.9 4958.64 13610.8 4958.19 13609.8 4957.74 13608.8 4957.01 13607.9 4955.99 13607 4954.97 13606.1 4953.35 13605 4951.14 13603.6 4948.8 13602.2 4946.98 13600.9 4945.68 13599.8 4944.38 13598.7 4943.4 13597.4 4942.74 13596.1 4942.08 13594.8 4941.75 13593.2 4941.75 13591.5 4941.75 13589.1 4942.38 13587.1 4943.66 13585.3 4944.93 13583.5 4946.75 13582.1 4949.12 13581.2 4951.48 13580.2 4954.24 13579.7 4957.38 13579.7Z" fill-rule="evenodd"/><text fill="#000000" fill-opacity="0" font-family="Arial,Arial_MSFontService,sans-serif" font-size="44.4277" x="4934.56" y="13618.6">ğ‘ </text><path d="M5068.84 13554.5C5077.58 13556.8 5084.3 13561.8 5088.99 13569.5 5093.67 13577.1 5096.02 13586.3 5096.02 13597.1 5096.02 13608 5093.68 13617.2 5089.01 13624.8 5084.34 13632.5 5077.61 13637.4 5068.84 13639.7L5067.76 13636.3C5074.68 13634 5079.82 13629.4 5083.19 13622.6 5086.56 13615.8 5088.25 13607.2 5088.25 13596.7 5088.25 13586.6 5086.57 13578.2 5083.21 13571.5 5079.86 13564.8 5074.66 13560.3 5067.63 13558ZM5011.85 13554.5 5013.07 13558C5006.06 13560.3 5000.87 13564.8 4997.5 13571.5 4994.13 13578.2 4992.45 13586.6 4992.45 13596.7 4992.45 13607.2 4994.13 13615.8 4997.5 13622.6 5000.87 13629.4 5006.01 13634 5012.93 13636.3L5011.85 13639.7C5003.08 13637.4 4996.36 13632.5 4991.68 13624.8 4987.01 13617.2 4984.68 13608 4984.68 13597.1 4984.68 13586.3 4987.02 13577.1 4991.71 13569.5 4996.39 13561.8 5003.11 13556.8 5011.85 13554.5Z" fill-rule="evenodd"/><path d="M5045.94 13585C5044.5 13585 5043.09 13585.4 5041.7 13586.4 5040.3 13587.3 5038.75 13588.8 5037.05 13590.9 5035.34 13593 5033.95 13595.2 5032.87 13597.4 5031.79 13599.6 5030.88 13602.4 5030.13 13605.9L5029.73 13607.8C5029.28 13609.9 5029.05 13611.9 5029.05 13613.9 5029.05 13616.2 5029.57 13617.9 5030.6 13619 5031.63 13620 5033.35 13620.6 5035.74 13620.6 5036.97 13620.6 5038.14 13620.4 5039.25 13620 5040.36 13619.6 5041.49 13618.9 5042.64 13618 5043.79 13617 5044.89 13615.8 5045.92 13614.3 5046.95 13612.8 5047.9 13610.9 5048.77 13608.7 5049.64 13606.5 5050.31 13604.1 5050.79 13601.6 5051.27 13599.1 5051.51 13596.6 5051.51 13594.3 5051.51 13591.2 5051.07 13588.9 5050.19 13587.3 5049.3 13585.8 5047.89 13585 5045.94 13585ZM5038.08 13559.2 5040.69 13559.2 5032.78 13590.6 5033.36 13590.8C5036.27 13586.9 5038.99 13584.1 5041.54 13582.3 5044.08 13580.6 5046.63 13579.7 5049.18 13579.7 5052.44 13579.7 5054.98 13581 5056.79 13583.5 5058.6 13585.9 5059.51 13589.4 5059.51 13594 5059.51 13598.9 5058.51 13603.8 5056.52 13608.5 5054.53 13613.3 5051.77 13617.1 5048.23 13619.9 5044.7 13622.7 5040.75 13624.1 5036.37 13624.1 5032.39 13624.1 5028.86 13623.1 5025.77 13621.2L5021.64 13624.1 5018.76 13623.4 5030.4 13572C5031.09 13569 5031.43 13566.8 5031.43 13565.4 5031.43 13564.1 5031.05 13563.3 5030.29 13562.8 5029.52 13562.2 5028.15 13562 5026.18 13561.9L5026.72 13559.6Z" fill-rule="evenodd"/><text fill="#000000" fill-opacity="0" font-family="Arial,Arial_MSFontService,sans-serif" font-size="64.957" x="5018.76" y="13616">ğ‘</text><path d="M5136.11 13603.5 5191.46 13603.5 5191.46 13609.4 5136.11 13609.4ZM5136.11 13584.8 5191.46 13584.8 5191.46 13590.8 5136.11 13590.8Z" fill-rule="evenodd"/><text fill="#000000" fill-opacity="0" font-family="Arial,Arial_MSFontService,sans-serif" font-size="24.6172" x="5136.11" y="13606.3">=</text><path d="M5252.65 13561.4 5255.12 13561.4C5254.94 13564.2 5254.85 13568.2 5254.85 13573.3L5254.85 13611.7C5254.85 13613.4 5254.95 13614.7 5255.14 13615.6 5255.34 13616.5 5255.68 13617.2 5256.18 13617.8 5256.67 13618.3 5257.38 13618.7 5258.31 13619.1 5259.24 13619.4 5260.41 13619.6 5261.81 13619.8 5263.22 13619.9 5265.08 13620.1 5267.39 13620.1L5267.39 13623.4 5234.19 13623.4 5234.19 13620.1C5237.51 13620 5239.89 13619.8 5241.31 13619.5 5242.73 13619.3 5243.82 13618.9 5244.56 13618.4 5245.31 13617.9 5245.86 13617.1 5246.2 13616.2 5246.55 13615.3 5246.72 13613.8 5246.72 13611.7L5246.72 13575.2C5246.72 13574 5246.51 13573.2 5246.09 13572.6 5245.67 13572.1 5245.06 13571.8 5244.25 13571.8 5243.29 13571.8 5241.93 13572.3 5240.16 13573.3 5238.4 13574.3 5236.21 13575.6 5233.6 13577.4L5231.63 13573.9Z" fill-rule="evenodd"/><text fill="#000000" fill-opacity="0" font-family="Arial,Arial_MSFontService,sans-serif" font-size="62.0371" x="5231.63" y="13615.6">1</text><rect x="4298" y="13694" width="151" height="140" stroke="#FF0000" stroke-width="10.3125" stroke-miterlimit="8" fill="#FFFFFF"/><text font-family="Calibri,Calibri_MSFontService,sans-serif" font-weight="400" font-size="92" transform="matrix(1 0 0 1 4482.99 13796)">Max Range Feature </text><path d="M5236.3 13752.2C5238.18 13752.2 5239.67 13752.8 5240.77 13754 5241.86 13755.3 5242.41 13756.9 5242.41 13758.9 5242.41 13760.4 5242.12 13761.9 5241.55 13763.5L5242.14 13763.8C5245.07 13759.8 5247.89 13756.9 5250.6 13755 5253.31 13753.1 5256.06 13752.2 5258.85 13752.2 5261.03 13752.2 5262.86 13752.4 5264.33 13752.7L5262.17 13762.8 5257.54 13762.8C5257.37 13761.5 5257.11 13760.5 5256.78 13759.8 5256.45 13759.2 5256.06 13758.7 5255.61 13758.4 5255.16 13758.1 5254.6 13758 5253.91 13758 5252.83 13758 5251.65 13758.5 5250.38 13759.4 5249.11 13760.3 5247.68 13761.8 5246.09 13763.8 5244.5 13765.7 5243.24 13767.6 5242.29 13769.5 5241.35 13771.3 5240.56 13773.6 5239.94 13776.4L5235.67 13795.9 5227.9 13795.9 5234.41 13767.4C5234.83 13765.6 5235.1 13764.2 5235.22 13763.2 5235.34 13762.2 5235.4 13761.4 5235.4 13760.7 5235.4 13759.5 5235.2 13758.7 5234.81 13758.1 5234.43 13757.6 5233.81 13757.3 5232.97 13757.3 5232.04 13757.3 5231.06 13757.7 5230.03 13758.5 5229 13759.2 5227.58 13760.6 5225.79 13762.6L5223.22 13760.1C5225.98 13757.2 5228.29 13755.2 5230.14 13754 5232 13752.8 5234.05 13752.2 5236.3 13752.2Z" fill-rule="evenodd"/><text fill="#000000" fill-opacity="0" font-family="Arial,Arial_MSFontService,sans-serif" font-size="43.709" x="5223.22" y="13790.4">ğ‘Ÿ</text><path d="M5271.23 13781.5 5273.49 13781.5 5266.69 13813.6C5266.14 13816 5265.44 13818.2 5264.57 13820 5263.71 13821.7 5262.66 13823.2 5261.42 13824.3 5260.17 13825.5 5258.72 13826.3 5257.07 13826.8 5255.41 13827.4 5253.51 13827.6 5251.37 13827.6 5250.81 13827.6 5250.26 13827.6 5249.74 13827.5 5249.22 13827.5 5248.75 13827.4 5248.33 13827.3L5249.15 13823.9C5249.41 13824 5249.76 13824 5250.2 13824.1 5250.63 13824.1 5251.13 13824.1 5251.7 13824.1 5252.77 13824.1 5253.72 13824 5254.56 13823.7 5255.4 13823.4 5256.16 13822.9 5256.82 13822.2 5257.49 13821.4 5258.09 13820.4 5258.62 13819.1 5259.16 13817.8 5259.65 13816.1 5260.11 13814.1 5260.87 13810.6 5261.6 13807.3 5262.3 13804.2 5263 13801.1 5263.57 13798.5 5264.02 13796.4 5264.47 13794.3 5264.82 13792.6 5265.08 13791.4 5265.34 13790.1 5265.53 13789.2 5265.65 13788.5 5265.77 13787.8 5265.85 13787.3 5265.87 13787.1 5265.89 13786.8 5265.9 13786.5 5265.9 13786.4 5265.9 13785.6 5265.61 13785 5265.03 13784.7 5264.46 13784.3 5263.44 13784.1 5261.97 13784.1L5262.46 13781.9ZM5270.02 13768.3 5276.6 13768.3 5274.99 13775.3 5268.42 13775.3Z" fill-rule="evenodd"/><text fill="#000000" fill-opacity="0" font-family="Arial,Arial_MSFontService,sans-serif" font-size="59.3115" x="5248.33" y="13820.2">ğ‘—</text><path d="M0.00257147-2.29167 1859.54-0.205087 1859.53 4.37824-0.00257147 2.29167ZM1854.98-11.6685 1882.46 2.1123 1854.94 15.8314Z" transform="matrix(1 0 0 -1 2385.5 13029.6)"/><path d="M2201.97 13031.9 351.419 13029.8 351.424 13025.2 2201.97 13027.3ZM355.985 13041.3 328.5 13027.5 356.016 13013.8Z"/><path d="M2245.8 12985.7C2249.76 12985.7 2252.85 12986.8 2255.08 12988.9 2257.31 12990.9 2258.73 12994.2 2259.33 12998.6 2259.94 13003 2260.24 13010.2 2260.24 13020.1 2260.24 13032.1 2259.76 13045.7 2258.8 13060.8L2259.43 13060.8C2267.63 13051.8 2274.57 13043.3 2280.24 13035.4 2285.91 13027.5 2289.87 13021 2292.14 13015.8 2294.42 13010.6 2295.55 13006.3 2295.55 13002.8 2295.55 12999.6 2294.98 12997.2 2293.83 12995.6 2292.69 12994 2290.91 12993.2 2288.49 12993.2 2286.32 12993.2 2284.1 12993.9 2281.83 12995.4 2279.56 12996.8 2277.22 12998.9 2274.8 13001.7L2271.11 12998.2C2275.53 12993.4 2279.33 12990.2 2282.52 12988.4 2285.71 12986.6 2289.32 12985.7 2293.36 12985.7 2297.32 12985.7 2300.42 12986.8 2302.64 12988.9 2304.87 12990.9 2306.29 12994.2 2306.89 12998.6 2307.5 13003 2307.8 13010.2 2307.8 13020.1 2307.8 13032.1 2307.32 13045.7 2306.36 13060.8L2306.99 13060.8C2314.07 13053.1 2320.46 13045.3 2326.14 13037.6 2331.83 13029.8 2336.16 13022.9 2339.11 13016.7 2342.07 13010.6 2343.55 13005.4 2343.55 13001.4 2343.55 12998.7 2343.11 12996.7 2342.24 12995.3 2341.36 12993.9 2339.93 12993.2 2337.93 12993.2 2336.55 12993.2 2335.11 12993.5 2333.61 12994.3 2332.11 12995 2329.97 12996.6 2327.18 12999L2323.49 12995.6C2327.32 12991.8 2330.7 12989.3 2333.61 12987.9 2336.53 12986.4 2339.63 12985.7 2342.93 12985.7 2351.47 12985.7 2355.74 12990 2355.74 12998.4 2355.74 13004.8 2351.59 13014.1 2343.3 13026.5 2335.01 13038.8 2323.03 13053.4 2307.36 13070.3L2298.99 13073.1 2296.43 13073.1C2297.09 13055.8 2297.43 13041.5 2297.43 13030.1L2297.43 13025.8C2297.43 13024.5 2297.41 13023.2 2297.36 13021.9L2296.61 13021.9C2293.2 13028.5 2288.53 13035.7 2282.61 13043.5 2276.7 13051.3 2269.09 13060.3 2259.8 13070.3L2251.11 13073.1 2248.55 13073.1C2248.84 13058.8 2248.99 13047.8 2248.99 13040.2 2248.99 13032 2248.88 13025.3 2248.68 13020 2248.47 13014.6 2248.2 13010 2247.86 13005.9 2247.53 13001.8 2247.04 12999 2246.39 12997.4 2245.75 12995.7 2245 12994.6 2244.14 12994.1 2243.29 12993.5 2242.22 12993.2 2240.93 12993.2 2238.76 12993.2 2236.54 12993.9 2234.27 12995.4 2232 12996.8 2229.66 12998.9 2227.24 13001.7L2223.55 12998.2C2227.01 12994.6 2229.82 12991.9 2231.99 12990.3 2234.16 12988.7 2236.32 12987.6 2238.49 12986.8 2240.66 12986.1 2243.09 12985.7 2245.8 12985.7Z" fill-rule="evenodd"/><text fill="#000000" fill-opacity="0" font-family="Arial,Arial_MSFontService,sans-serif" font-size="87.3125" x="2223.55" y="13062.1">ğ’²</text></g></svg>